PathFileType	4	(X/Y/Z)	/Users/niels/Desktop/University/Third Semester/Perception and Action/Exam/Gymnastics Motion Tracking/Code for Gym Tracking/Analyzed Data/Webcam_Backflip/id6_3_pure_Sports2D/id6_3_pure_Sports2D_px_person00.trc
DataRate	CameraRate	NumFrames	NumMarkers	Units	OrigDataRate	OrigDataStartFrame	OrigNumFrames
29.8125	29.8125	11	22	m	29.8125	100	160
Frame#	Time	Hip			RHip			RKnee			RAnkle			RBigToe			RSmallToe			RHeel			LHip			LKnee			LAnkle			LBigToe			LSmallToe			LHeel			Neck			Head			Nose			RShoulder			RElbow			RWrist			LShoulder			LElbow			LWrist		
		X1	Y1	Z1	X2	Y2	Z2	X3	Y3	Z3	X4	Y4	Z4	X5	Y5	Z5	X6	Y6	Z6	X7	Y7	Z7	X8	Y8	Z8	X9	Y9	Z9	X10	Y10	Z10	X11	Y11	Z11	X12	Y12	Z12	X13	Y13	Z13	X14	Y14	Z14	X15	Y15	Z15	X16	Y16	Z16	X17	Y17	Z17	X18	Y18	Z18	X19	Y19	Z19	X20	Y20	Z20	X21	Y21	Z21	X22	Y22	Z22
100	3.354297693920335	0.9266436581282959	-0.5454206125347525	0.0	0.9308230521810571	-0.5473501562104616	0.0	0.957991546650272	-0.6423881486984108	0.0	0.9601875757240861	-0.7425050019275675	0.0	0.9913800403579727	-0.7745487821171684	0.0	0.9816244666266284	-0.7756915088110196	0.0	0.951242326310304	-0.76092771634544	0.0	0.9221293698802872	-0.5450852283652379	0.0	0.9505941943677527	-0.6410648559496107	0.0	0.9536851361623054	-0.7375191640952384	0.0	0.9809874032003726	-0.7675250034360994	0.0	0.9758072323511741	-0.7623580174346378	0.0	0.9452467942125444	-0.754476805968104	0.0	0.9205920979872388	-0.4101642954375914	0.0	0.9363820334693214	-0.341215006148498	0.0	0.9482471276945675	-0.3775297396024444	0.0	0.9125596601809137	-0.43169125556669535	0.0	0.9103532828829266	-0.49792812115135465	0.0	0.9334709545185562	-0.5594923360996077	0.0	0.9103412385091303	-0.42955603213671156	0.0	0.9225289333109788	-0.4927824293837436	0.0	0.951887804171017	-0.5474048930172369	0.0
101	3.3878406708595383	0.9341683316563388	-0.5643841429468632	0.0	0.9382996994264198	-0.5653028827344253	0.0	0.9673695330685387	-0.6606813683231257	0.0	0.9638244268276451	-0.7606850342492223	0.0	0.9928932359735748	-0.7897077654904827	0.0	0.9832250130657024	-0.7903707348497876	0.0	0.9546401761274068	-0.7781241869495072	0.0	0.930135343920918	-0.5636319303677879	0.0	0.9578259977874088	-0.659624263507012	0.0	0.956101365379817	-0.7554771436380844	0.0	0.9819183426173264	-0.7822986075648588	0.0	0.9759197576941241	-0.777623629568279	0.0	0.9472343831154044	-0.7707105654100331	0.0	0.9260761205981954	-0.4284313600559473	0.0	0.9404509096242888	-0.36014623660191514	0.0	0.9537185354702377	-0.39576964594022324	0.0	0.9186311729939224	-0.45166447281696126	0.0	0.9187029074933504	-0.5185627433514968	0.0	0.9421464798850665	-0.578765192219844	0.0	0.915883917225722	-0.44775605275879554	0.0	0.9267946716422469	-0.5114743887607639	0.0	0.9558789582281964	-0.5665247588472702	0.0
102	3.421383647798742	0.940642369305188	-0.5838380171533913	0.0	0.9444920218848719	-0.5837766417748966	0.0	0.9756229763801588	-0.6796052085022299	0.0	0.9652675906609535	-0.7789392246679815	0.0	0.9922210536759004	-0.8043469703975871	0.0	0.9828569603844826	-0.8045805019895038	0.0	0.9560071712332763	-0.7947676466208045	0.0	0.9366736557827937	-0.5827986904786102	0.0	0.9631702030322273	-0.6787747663922438	0.0	0.9561162699145263	-0.7738604418658961	0.0	0.981313522491759	-0.7971030986769719	0.0	0.9744838209975483	-0.7928015830652761	0.0	0.9470038441129901	-0.7871659197169398	0.0	0.9314700995840137	-0.4472790170801958	0.0	0.944615644231505	-0.38001516245784966	0.0	0.9591233808468456	-0.4148166929979498	0.0	0.9245204972848167	-0.47172664161642686	0.0	0.9267485495673463	-0.5393375022175869	0.0	0.9502912401990607	-0.5983846485771235	0.0	0.9216282111356501	-0.46650978200370496	0.0	0.9309246369855898	-0.5309237173560212	0.0	0.9596105077145589	-0.5864130964607581	0.0
103	3.454926624737945	0.945830627318388	-0.6020557897670373	0.0	0.9491598914541168	-0.6011592218561149	0.0	0.9820992521481013	-0.6972771991182045	0.0	0.9652941946160227	-0.7954275225936231	0.0	0.9904562127461473	-0.8173528702319373	0.0	0.9814871816093966	-0.8172413351786951	0.0	0.9562164279682298	-0.8093158185760991	0.0	0.9416506273096318	-0.600871517471378	0.0	0.9665676882273696	-0.6966847773069464	0.0	0.9547469756088866	-0.7906813064684984	0.0	0.980465306766546	-0.8107252559506027	0.0	0.9729749161887902	-0.8065328096511852	0.0	0.9455284743272414	-0.8020697611475499	0.0	0.9367171419184959	-0.46494237429616597	0.0	0.9486702479082724	-0.39879823117148583	0.0	0.9644444522316828	-0.4327677362497375	0.0	0.9301721237336467	-0.48999832157083684	0.0	0.9342059825636441	-0.5582576264701259	0.0	0.9575489690570284	-0.6166094538147054	0.0	0.9275256463100304	-0.48419055569724995	0.0	0.9350278480547886	-0.5493135756589683	0.0	0.9628346115195984	-0.6050202135261852	0.0
104	3.4884696016771484	0.9496250846184415	-0.6171631036653825	0.0	0.9522589561778457	-0.6156698952529647	0.0	0.9864577616438337	-0.7117899414466404	0.0	0.9645846141975053	-0.8085022926925065	0.0	0.9884089923800261	-0.8276724043713805	0.0	0.979773990606596	-0.8273553218591827	0.0	0.955890331954857	-0.82050083159293	0.0	0.9452251641348733	-0.6159621113076085	0.0	0.9683858626123546	-0.7114612666068789	0.0	0.9529141101889714	-0.8040970333792574	0.0	0.980247755039182	-0.8219246805390904	0.0	0.9723993050476689	-0.8175777726299334	0.0	0.9435735234697664	-0.8137827426435873	0.0	0.9416975997060795	-0.4796099664955739	0.0	0.9525472677244747	-0.41441685894858543	0.0	0.9695842333831247	-0.44764939015067223	0.0	0.9354726542028282	-0.5046910256943858	0.0	0.9407076882246831	-0.5734303090740872	0.0	0.9635459947449658	-0.6315999404725773	0.0	0.9333778964953081	-0.4990193872085251	0.0	0.9389979778445863	-0.5647141999989991	0.0	0.965334060688891	-0.620246793335549	0.0
105	3.522012578616352	0.9521634046669541	-0.6274706750736601	0.0	0.9540849468691707	-0.6256270687968498	0.0	0.988781314037825	-0.72153701853136	0.0	0.9636208991507256	-0.816948079810116	0.0	0.9865317412021191	-0.834366106733331	0.0	0.9781386734946614	-0.8340736976598022	0.0	0.955351285694746	-0.8275095222555481	0.0	0.9476563979448839	-0.6263216836228098	0.0	0.9690816276664131	-0.7214463941522209	0.0	0.9510891265129148	-0.8127317213584733	0.0	0.9805642565690591	-0.829513395579294	0.0	0.9726119552498628	-0.82488787593171	0.0	0.9415126985704029	-0.8211378798771916	0.0	0.9462512494703458	-0.48972013367189926	0.0	0.9563270016535841	-0.4250658977453105	0.0	0.9743764648727806	-0.45774963830436394	0.0	0.9402248516601611	-0.5143549569270957	0.0	0.9459064102887261	-0.5833584936982619	0.0	0.9680741632142771	-0.6417382337818545	0.0	0.9388950810215593	-0.5093272643882164	0.0	0.9425587790180516	-0.5753683230464318	0.0	0.9670361192225143	-0.6303741980103619	0.0
106	3.555555555555555	0.9537806906687037	-0.6318307075047576	0.0	0.9551382774008171	-0.6298098228246942	0.0	0.9894515665750502	-0.7254729611971643	0.0	0.9626556690242438	-0.820086316203118	0.0	0.9850177681416101	-0.8367837028357968	0.0	0.9768013051738221	-0.8367928066749128	0.0	0.9547046512049002	-0.8299744358374233	0.0	0.9492279417944025	-0.6307150740518699	0.0	0.969005607695268	-0.7255184577773359	0.0	0.9494218228297929	-0.8157993192391767	0.0	0.9807728867627774	-0.8326012705444954	0.0	0.9727873461299087	-0.8277472925724163	0.0	0.9394994790669511	-0.8235448188529786	0.0	0.9502107706231315	-0.4941979045264903	0.0	0.9600540902066672	-0.4295234114964516	0.0	0.9786261151665123	-0.46195785186757327	0.0	0.9442440375422216	-0.518077277633432	0.0	0.9495660703775419	-0.5870754228297654	0.0	0.9710520908013154	-0.6458952912372761	0.0	0.9437521541758757	-0.5138903679987026	0.0	0.9454333312040836	-0.5800083926067768	0.0	0.9680137525976826	-0.6342969992515233	0.0
107	3.5890985324947584	0.9548382956799513	-0.629837833801028	0.0	0.9558649601685264	-0.6277411263952594	0.0	0.9889516523398022	-0.7232826052608469	0.0	0.961773043647675	-0.8177863879065588	0.0	0.9839698443998995	-0.8346685104183009	0.0	0.9758385763847629	-0.8352000456631845	0.0	0.953953076687142	-0.8278526168325566	0.0	0.9502289265105471	-0.6286757089420617	0.0	0.9684490842591459	-0.7233078123288742	0.0	0.9480310521047262	-0.8131282950451536	0.0	0.9805142542886369	-0.8307852260967808	0.0	0.9723615049323766	-0.8258575495241819	0.0	0.9377014487507881	-0.8209322757365146	0.0	0.9534857712082488	-0.4926168286886484	0.0	0.9636405386656443	-0.42740393590966136	0.0	0.9821720385716852	-0.45996815823450554	0.0	0.9474761041639419	-0.5156202243760962	0.0	0.9516544459009996	-0.5842577656090928	0.0	0.972463601805721	-0.6436054396034241	0.0	0.9476996862335746	-0.5122164793866129	0.0	0.9475180941068336	-0.5780959023888359	0.0	0.9684470251157704	-0.6316479446888029	0.0
108	3.622641509433962	0.9556073300328671	-0.6218532539540421	0.0	0.9565311730444569	-0.6197604288323845	0.0	0.9877716721094452	-0.7154120240546074	0.0	0.961042286024674	-0.8104226389582698	0.0	0.9835027523645765	-0.8281477834538685	0.0	0.975323686768623	-0.8292874725698701	0.0	0.953144912432118	-0.821374007005659	0.0	0.9509118379893612	-0.6205643217840835	0.0	0.9677349267799403	-0.7152678072261041	0.0	0.9470664111143156	-0.8051559999176189	0.0	0.9799830220370952	-0.8241781510235631	0.0	0.9713887371327274	-0.8193464786915574	0.0	0.936319473833505	-0.8136985311035911	0.0	0.9561168327680062	-0.48528155118709443	0.0	0.9669574149372727	-0.4192345224014816	0.0	0.984952372001827	-0.4522513428135346	0.0	0.9500144750919658	-0.5074370541140814	0.0	0.9524188631094906	-0.5753507951791345	0.0	0.9724602745820696	-0.6351979706147278	0.0	0.9507000425224148	-0.5046498917310244	0.0	0.9489328561645918	-0.5699340272944795	0.0	0.9685458422644223	-0.6229164234425499	0.0
109	3.656184486373165	0.9562508779936741	-0.6089657751013497	0.0	0.9572364007157685	-0.6069722179610847	0.0	0.9863314112450927	-0.7029980483704907	0.0	0.9605854624134978	-0.7988565363630354	0.0	0.9837549879862086	-0.8178345802414254	0.0	0.9753966742846988	-0.819504740442817	0.0	0.9524198757488231	-0.8111342159553575	0.0	0.9514583475949444	-0.6075103404712201	0.0	0.9672063249815986	-0.702620392535826	0.0	0.9466415153623224	-0.7929252218048822	0.0	0.9796641594711241	-0.8134872521172308	0.0	0.9703880759296475	-0.8088698623486197	0.0	0.9354857214859982	-0.802729270662857	0.0	0.9582230884036163	-0.47320795083080025	0.0	0.9699307069798151	-0.40631356285896075	0.0	0.9870307718783702	-0.43991410324715524	0.0	0.9520350442805221	-0.49459324966483686	0.0	0.9523206278981954	-0.5615746946775353	0.0	0.9714239324634448	-0.6218126242030156	0.0	0.9529202237454697	-0.49228039801924073	0.0	0.9499511748926512	-0.5566423096115686	0.0	0.9684899521991635	-0.6094262931402695	0.0
110	3.6897274633123684	0.9568523360832197	-0.5928469531389251	0.0	0.9579976673437123	-0.5910783963135067	0.0	0.9848896411607636	-0.6876979982531636	0.0	0.9605084385539482	-0.7844484311602153	0.0	0.9848585648632171	-0.804984801220852	0.0	0.976216708775166	-0.8069851075497314	0.0	0.951927195908306	-0.7982231350038419	0.0	0.9519774329777645	-0.591239995110457	0.0	0.9671116126843889	-0.6871209424802769	0.0	0.9468206734293558	-0.7780119004086926	0.0	0.9799727137354577	-0.8000782626273949	0.0	0.9700014780610989	-0.7956906837725904	0.0	0.9352457963009148	-0.7893643011120641	0.0	0.9599237185480723	-0.4579653430922619	0.0	0.972565463146049	-0.39040772281684294	0.0	0.9885586604282415	-0.4245233928299536	0.0	0.9537227469534645	-0.47862366380163435	0.0	0.9518429605814049	-0.5446970983963964	0.0	0.9698516971937226	-0.6051673412047964	0.0	0.9545652297759712	-0.476709953621247	0.0	0.9508559136266785	-0.5399476974279508	0.0	0.9684162744960507	-0.593034175684168	0.0
